<svg xmlns="http://www.w3.org/2000/svg" xmlns:xlink="http://www.w3.org/1999/xlink" width="169.66" height="40" viewBox="0 0 169.66 40"><defs><style>.cls-1,.cls-4{fill:none;}.cls-2{fill:#33cc95;}.cls-3{clip-path:url(#clip-path);}.cls-4{stroke:#fff;stroke-linecap:round;stroke-linejoin:round;stroke-width:2px;}.cls-5{fill:#fff;}</style><clipPath id="clip-path"><rect class="cls-1" x="6.86" y="6.28" width="27.43" height="27.43"/></clipPath></defs><g id="Layer_2" data-name="Layer 2"><g id="Layer_1-2" data-name="Layer 1"><path class="cls-2" d="M34.14,5.86A20,20,0,1,0,40,20,20,20,0,0,0,34.14,5.86Z"/><g class="cls-3"><path class="cls-4" d="M20.57,7.43V32.57"/><path class="cls-4" d="M26.29,12H17.71a4,4,0,0,0,0,8h5.72a4,4,0,0,1,0,8H13.71"/></g><path class="cls-5" d="M65.8,21.92H59.16a3.1,3.1,0,0,0,.69,1.88,1.92,1.92,0,0,0,1.49.68,1.87,1.87,0,0,0,1.82-1.34h2.48a5.17,5.17,0,0,1-1.51,2.63,3.87,3.87,0,0,1-2.74,1A4.1,4.1,0,0,1,59,26.09a4.53,4.53,0,0,1-1.62-2,7.27,7.27,0,0,1-.59-3,7.3,7.3,0,0,1,.58-3,4.6,4.6,0,0,1,1.6-2,4.35,4.35,0,0,1,4.7,0A4.35,4.35,0,0,1,65.3,18a6.84,6.84,0,0,1,.57,2.87A7.08,7.08,0,0,1,65.8,21.92ZM63.49,20a2.42,2.42,0,0,0-.64-1.73,2,2,0,0,0-1.52-.65,1.89,1.89,0,0,0-1.44.63A3,3,0,0,0,59.18,20Z"/><path class="cls-5" d="M73,26.62,71.1,23.18l-1.66,3.44H67l3-5.56-3-5.52h2.59L71.4,19l1.67-3.42h2.46l-3,5.52,3,5.56Z"/><path class="cls-5" d="M80.73,15.87a3.2,3.2,0,0,1,1.78-.51,3.43,3.43,0,0,1,2.11.7,4.65,4.65,0,0,1,1.49,2,7.52,7.52,0,0,1,.55,3,7.66,7.66,0,0,1-.55,3,4.79,4.79,0,0,1-1.49,2,3.39,3.39,0,0,1-2.11.72,3.18,3.18,0,0,1-1.76-.5A4,4,0,0,1,79.51,25V31.9H77.22V15.54h2.29v1.6A3.79,3.79,0,0,1,80.73,15.87ZM84,19.31a2.63,2.63,0,0,0-.88-1.11,2.1,2.1,0,0,0-1.19-.38,2,2,0,0,0-1.18.39,2.76,2.76,0,0,0-.88,1.13,4.06,4.06,0,0,0-.34,1.74,4.06,4.06,0,0,0,.34,1.74A2.76,2.76,0,0,0,80.73,24a2,2,0,0,0,1.18.39,2,2,0,0,0,1.19-.4A2.86,2.86,0,0,0,84,22.8,4.12,4.12,0,0,0,84.32,21,4,4,0,0,0,84,19.31Z"/><path class="cls-5" d="M97.13,21.92H90.48a3.1,3.1,0,0,0,.69,1.88,1.94,1.94,0,0,0,1.5.68,1.89,1.89,0,0,0,1.82-1.34H97a5.1,5.1,0,0,1-1.51,2.63,3.86,3.86,0,0,1-2.74,1,4.1,4.1,0,0,1-2.35-.71,4.67,4.67,0,0,1-1.62-2,7.27,7.27,0,0,1-.59-3,7.46,7.46,0,0,1,.58-3,4.55,4.55,0,0,1,1.61-2A4.33,4.33,0,0,1,95,16,4.44,4.44,0,0,1,96.63,18a7,7,0,0,1,.56,2.87A8.77,8.77,0,0,1,97.13,21.92ZM94.81,20a2.42,2.42,0,0,0-.64-1.73,2,2,0,0,0-1.52-.65,1.89,1.89,0,0,0-1.44.63A3.08,3.08,0,0,0,90.5,20Z"/><path class="cls-5" d="M106.93,16.63a5.43,5.43,0,0,1,1,3.49v6.5h-2.29V20.5a3.29,3.29,0,0,0-.54-2,1.92,1.92,0,0,0-3,0,3.23,3.23,0,0,0-.55,2v6.12h-2.3V15.54h2.3v1.38a3.41,3.41,0,0,1,1.17-1.13,3.14,3.14,0,0,1,1.57-.41A3.19,3.19,0,0,1,106.93,16.63Z"/><path class="cls-5" d="M110.48,18.06a4.72,4.72,0,0,1,1.5-2,3.48,3.48,0,0,1,2.12-.7,3.34,3.34,0,0,1,1.69.47,3.65,3.65,0,0,1,1.28,1.25V11.82h2.33v14.8h-2.33V25a3.47,3.47,0,0,1-1.2,1.32,3.23,3.23,0,0,1-1.79.5,3.42,3.42,0,0,1-2.1-.72,4.89,4.89,0,0,1-1.5-2,7.84,7.84,0,0,1-.55-3A7.72,7.72,0,0,1,110.48,18.06Zm6.27,1.27a2.57,2.57,0,0,0-.88-1.12,2,2,0,0,0-2.38,0,2.7,2.7,0,0,0-.88,1.11,4.17,4.17,0,0,0-.33,1.73,4.3,4.3,0,0,0,.33,1.75,2.84,2.84,0,0,0,.89,1.15,2,2,0,0,0,1.17.4,2,2,0,0,0,1.2-.39,2.57,2.57,0,0,0,.88-1.12,4.24,4.24,0,0,0,.33-1.75A4.24,4.24,0,0,0,116.75,19.33Z"/><path class="cls-5" d="M122.21,13.75a1.71,1.71,0,0,1-.4-1.17,1.71,1.71,0,0,1,.4-1.17,1.28,1.28,0,0,1,1-.47,1.29,1.29,0,0,1,1,.47,1.91,1.91,0,0,1,0,2.34,1.29,1.29,0,0,1-1,.47A1.28,1.28,0,0,1,122.21,13.75Zm2.14,1.79V26.62h-2.3V15.54Z"/><path class="cls-5" d="M129.69,17.84V23.2a1.21,1.21,0,0,0,.23.81.92.92,0,0,0,.74.25h1.07v2.36h-1.44q-2.91,0-2.91-3.44V17.84H126.3v-2.3h1.08V12.8h2.31v2.74h2v2.3Z"/><path class="cls-5" d="M142.37,15.54V26.62h-2.31v-1.4a3.22,3.22,0,0,1-1.16,1.13,3.07,3.07,0,0,1-1.55.41,3.25,3.25,0,0,1-1.88-.55,3.65,3.65,0,0,1-1.29-1.62,6.34,6.34,0,0,1-.47-2.55v-6.5H136v6.1a3.29,3.29,0,0,0,.54,2,1.76,1.76,0,0,0,1.47.71,1.79,1.79,0,0,0,1.5-.71,3.29,3.29,0,0,0,.54-2v-6.1Z"/><path class="cls-5" d="M148.5,15.88a2.76,2.76,0,0,1,1.63-.5v2.94h-.61a2.07,2.07,0,0,0-1.63.62,3.24,3.24,0,0,0-.55,2.16v5.52H145V15.54h2.3v1.72A3.52,3.52,0,0,1,148.5,15.88Z"/><path class="cls-5" d="M160.46,21.92h-6.64a3,3,0,0,0,.68,1.88,2,2,0,0,0,1.5.68,1.88,1.88,0,0,0,1.82-1.34h2.47a5.16,5.16,0,0,1-1.5,2.63,3.89,3.89,0,0,1-2.74,1,4.13,4.13,0,0,1-2.36-.71,4.67,4.67,0,0,1-1.62-2,7.27,7.27,0,0,1-.58-3,7.46,7.46,0,0,1,.57-3,4.55,4.55,0,0,1,1.61-2,4.35,4.35,0,0,1,4.7,0A4.49,4.49,0,0,1,160,18a7,7,0,0,1,.56,2.87A8.77,8.77,0,0,1,160.46,21.92ZM158.15,20a2.51,2.51,0,0,0-.64-1.73,2.06,2.06,0,0,0-1.53-.65,1.85,1.85,0,0,0-1.43.63,3,3,0,0,0-.72,1.75Z"/><path class="cls-5" d="M164.08,26.31a3.73,3.73,0,0,1-1.4-1.33,4,4,0,0,1-.57-1.86h2.32a1.59,1.59,0,0,0,1.64,1.48,1.52,1.52,0,0,0,1-.32,1,1,0,0,0,.37-.82.88.88,0,0,0-.45-.81,7.24,7.24,0,0,0-1.44-.59,11.13,11.13,0,0,1-1.66-.62,2.82,2.82,0,0,1-1.58-2.76,3.34,3.34,0,0,1,.43-1.68A3.08,3.08,0,0,1,164,15.8a4,4,0,0,1,1.91-.44,3.45,3.45,0,0,1,2.59,1A4,4,0,0,1,169.58,19h-2.2a1.54,1.54,0,0,0-.45-1.05,1.49,1.49,0,0,0-1.08-.39,1.46,1.46,0,0,0-1,.28,1,1,0,0,0-.33.78.94.94,0,0,0,.46.85,6.37,6.37,0,0,0,1.42.59,11.05,11.05,0,0,1,1.63.62,2.94,2.94,0,0,1,1.1,1,3.06,3.06,0,0,1,.49,1.77,3.41,3.41,0,0,1-.44,1.72A3,3,0,0,1,168,26.37a4,4,0,0,1-1.9.43A4,4,0,0,1,164.08,26.31Z"/></g></g></svg>